# xmcd CD database file
#
# Track frame offsets:
#	150
#	14192
#	26739
#	42094
#	59640
#	77062
#	94861
#	109217
#	123145
#	138078
#	149261
#	164438
#	179465
#	192188
#	207247
#	224978
#	241766
#	255645
#	272111
#	284389
#	299965
#	313952
#
# Disc length: 4374 seconds
#
# Revision: 0
# Processed by: cddbd v1.4PL0 Copyright (c) Steve Scherf et al.
# Submitted via: CDex 1.51
#
DISCID=65111416
DTITLE=Varios - Rancho Grande Volumen 5
DYEAR=1900
DGENRE=Country
TTITLE0=El Mono De Alambre - Mariano Barba
TTITLE1=Una Vez Más - Conjunto Primavera
TTITLE2=La Papa - Valentin Elizalde
TTITLE3=En Que Falle - Los Tigres Del Norte
TTITLE4=Son Tus Perjumenes - Lupillo Rivera
TTITLE5=De Uno Y De Todos Los Modos - Palomo
TTITLE6=Frio De Ausencia - Banda Pelillos
TTITLE7=Lloraras - Alegres De La Sierra
TTITLE8=Alla En El Rancho Garnde - El Coyote Y Su Banda
TTITLE9=El Taconazo - Raza Obrera
TTITLE10=Asi Te Quiero - Joan Sebastian
TTITLE11=Eso Duele - Intocable
TTITLE12=Fuiste A Acapulco - Joel Elizalde
TTITLE13=La Mentira - El Viejo Pauliono
TTITLE14=Corazon - Cuisillos
TTITLE15=El Cochecito -  Los Dos De Nuevo Leon
TTITLE16=Quien - Banda La Pirinola
TTITLE17=Ave Cautiva - Conjunto Primavera
TTITLE18=Desaires - Banda Tierra Blanca
TTITLE19=El Pipiripau - Mariano Barba
TTITLE20=Amor Que Muere - Valentin Elizalde
TTITLE21=La Mucura - Lupillo Rivera
EXTD=
EXTT0=
EXTT1=
EXTT2=
EXTT3=
EXTT4=
EXTT5=
EXTT6=
EXTT7=
EXTT8=
EXTT9=
EXTT10=
EXTT11=
EXTT12=
EXTT13=
EXTT14=
EXTT15=
EXTT16=
EXTT17=
EXTT18=
EXTT19=
EXTT20=
EXTT21=
PLAYORDER=
